# xmcd
#
# Track frame offsets: 
#        150
#        21214
#        36844
#        54168
#        76054
#        92786
#        111887
#        128896
#        141411
#        157915
#        175417
#
# Disc length: 2682 seconds
#
# Revision: 0
# Processed by: cddbd v1.5.2PL0 Copyright (c) Steve Scherf et al.
# Submitted via: ExactAudioCopy v0.95b4
#
DISCID=880a780b
DTITLE=Morning Parade - Morning Parade
DYEAR=2011
DGENRE=Rock
TTITLE0=Blue Winter
TTITLE1=Headlights
TTITLE2=Carousel
TTITLE3=Running Down The Aisle
TTITLE4=Us and Ourselves
TTITLE5=Under The Stars
TTITLE6=Close To Your Heart
TTITLE7=Half Litre Bottle
TTITLE8=Monday Morning
TTITLE9=Speechless
TTITLE10=Born Alone
EXTD=
EXTT0=
EXTT1=
EXTT2=
EXTT3=
EXTT4=
EXTT5=
EXTT6=
EXTT7=
EXTT8=
EXTT9=
EXTT10=
PLAYORDER=
